# xmcd CD database file
#
# Track frame offsets:
#	180
#	12589
#	23162
#	39622
#	53432
#	69947
#	87372
#	107631
#	127224
#	142215
#	161064
#
# Disc length: 2385 seconds
#
# Revision: 0
# Processed by: cddbd v1.4PL0 Copyright (c) Steve Scherf et al.
# Submitted via: CDex 1.40Release
#
DISCID=97094f0b
DTITLE=James Mitchell Jr. - James Mitchell Jr. and The Blue Tones
DYEAR=1900
DGENRE=Blues
TTITLE0=On The Boardwalk
TTITLE1=Green Onions
TTITLE2=Fever
TTITLE3=Pride And Joy
TTITLE4=Born Under a Bad Sign
TTITLE5=My Girl
TTITLE6=Don't Tell Me What To Do
TTITLE7=Just My Imagination
TTITLE8=Change is Gonna Come
TTITLE9=Little Red Rooster
TTITLE10=Good Night My Love
EXTD=ID3G: 0
EXTT0=
EXTT1=
EXTT2=
EXTT3=
EXTT4=
EXTT5=
EXTT6=
EXTT7=
EXTT8=
EXTT9=
EXTT10=
PLAYORDER=
